<svg xmlns="http://www.w3.org/2000/svg" width="36" height="36" viewBox="0 0 512 512">
  <circle cx="256" cy="256" r="256" fill="#151515"/>
  <path fill="#faf5da" d="M386.16 141.55c-2.7-1.39-5.33-2.92-7.87-4.59-7.41-4.89-14.21-10.66-20.24-17.18-15.08-17.26-20.72-34.77-22.79-47.03h.09c-1.73-10.18-.02-16.76.09-16.76h-68.7v265.65c0 3.57 0 7.09-.15 10.58 0 .44-.04.84-.06 1.25 0 .2 0 .4-.04.6 0 .05 0 .11 0 .16-1.47 19.36-12.46 36.71-29.35 46.3-8.66 4.93-18.47 7.51-28.43 7.5-32 0-57.94-26.1-57.94-58.33s25.94-58.34 57.94-58.34c6.06-.01 12.08.94 17.84 2.77v-69.95c-35.38-4.57-71.04 5.86-98.35 28.76-11.85 10.29-21.83 22.58-29.45 36.29-2.9 5.01-13.83 25.08-15.16 57.68-.83 18.5 4.73 37.68 7.37 45.61v.17c1.67 4.66 8.13 20.6 18.64 34.04 8.5 10.78 18.55 20.21 29.79 28.04v-.17l.17.17c33.27 22.57 70.16 21.08 70.16 21.08 6.39-.26 27.79 0 52.04-11.5 26.96-12.77 42.28-31.78 42.28-31.78 9.78-11.35 17.56-24.28 23.02-38.2 6.23-16.33 8.29-35.92 8.29-43.75v-140.93c.83.5 11.93 7.84 11.93 7.84s15.99 10.25 40.94 16.91c17.91 4.75 42.03 5.75 42.03 5.75v-68.2c-8.46.92-25.62-1.76-43.21-10.51z"/>
</svg>
