<svg xmlns="http://www.w3.org/2000/svg" width="36" height="36" viewBox="0 0 512 512">
  <circle cx="256" cy="256" r="256" fill="#151515"/>
  <path fill="#faf5da" d="M469.26 250.49c0 114.75-93.75 207.78-209.42 207.78-36.71 0-71.19-9.39-101.2-25.83l-115.94 36.82 37.79-111.51c-19.06-31.3-30.04-68.04-30.04-107.28 0-114.75 93.72-207.78 209.4-207.78 115.65 0 209.4 93.01 209.4 207.78zm-209.43-174.66c-97.07 0-176.03 78.37-176.03 174.7 0 38.22 12.46 73.61 33.53 102.39l-21.98 64.86 67.63-21.49c27.81 18.23 61.08 28.85 96.85 28.85 97.07 0 176.06-78.36 176.06-174.7 0-96.33-78.99-174.7-176.06-174.7zm105.77 222.52c-1.3-2.1-4.73-3.37-9.86-5.92-5.1-2.55-30.38-14.86-35.07-16.56-4.73-1.71-8.14-2.57-11.53 2.55-3.38 5.1-13.23 16.56-16.24 19.97-3 3.42-5.99 3.83-11.14 1.32-5.13-2.6-21.68-7.94-41.3-25.28-15.26-13.51-25.58-30.2-28.56-35.31-3-5.1-.3-7.87 2.25-10.4 2.3-2.3 5.15-5.94 7.72-8.94 2.57-3 3.41-5.1 5.12-8.51 1.69-3.42.83-6.42-.45-8.97-1.28-2.55-11.53-27.57-15.83-37.76-4.28-10.19-8.55-8.51-11.56-8.51-2.99 0-6.41-.42-9.83-.42-3.42 0-9.02 1.24-13.68 6.35-4.7 5.1-17.95 17.43-17.95 42.51 0 25.11 18.37 49.3 20.92 52.71 2.6 3.38 35.54 56.5 87.73 76.87 52.21 20.38 52.21 13.59 61.63 12.72 9.42-.88 30.36-12.35 34.64-24.22 4.3-11.94 4.3-22.17 3.02-24.31z"/>
</svg>
